<svg xmlns="http://www.w3.org/2000/svg" style="isolation:isolate" viewBox="1352 815 40 40" width="40" height="40"><path d="M1384 815h-24c-4.41 0-8 3.59-8 8v24c0 4.41 3.59 8 8 8h24c4.41 0 8-3.59 8-8v-24c0-4.41-3.59-8-8-8zm-6.4 12.8h6.4c.442 0 .8.358.8.8 0 .442-.358.8-.8.8h-6.4c-.442 0-.8-.358-.8-.8 0-.442.358-.8.8-.8zm-5.44 12.8c-.32.56-.72 1.04-1.28 1.44-.56.32-1.12.64-1.84.8-.64.16-1.36.24-2.08.24h-7.76v-16h7.52c.72 0 1.44.08 2.08.24.64.08 1.12.32 1.6.64s.8.72 1.04 1.2.4 1.12.4 1.84c0 .8-.16 1.44-.56 2-.32.48-.88.96-1.6 1.28.96.32 1.68.8 2.16 1.52.56.72.72 1.52.8 2.72 0 .8-.16 1.52-.48 2.08zm8.8.08c2.08 0 2.56-1.68 2.56-1.68h2.8s-1.04 4-5.44 4c-1.92 0-5.84-1.04-5.84-6 0-5.36 4.4-6 5.84-6 5.2 0 5.52 4.56 5.52 7.2h-8.24c.08.72.56 2.48 2.8 2.48z" fill="#132D5B"/><path d="M1363.2 829.4h2.24c2.32 0 2.56 1.36 2.56 2 0 .88-.32 2-2.32 2h-2.48v-4zm2.72 11.2h-2.72v-4.8h2.8c2.32 0 2.72 1.44 2.72 2.4s-.72 2.4-2.8 2.4zm12.4-5.52c.08-.32.24-.56.4-.8.24-.24.48-.48.8-.64.32-.16.72-.24 1.28-.24.8 0 1.36.24 1.76.64.4.4.64 1.04.72 1.84h-5.12c0-.32.08-.56.16-.8z"/></svg>