<svg xmlns="http://www.w3.org/2000/svg" style="isolation:isolate" viewBox="1296 815 40 38.75" width="40" height="38.75"><path d="M1316 815c-11 0-20 9-20 20 0 8.5 5.333 15.75 12.75 18.667.75-.167 1.417-.834 1.417-1.667v-3.667H1308c-1.583 0-2.917-.75-3.583-1.916-.167-.334-.334-.75-.5-1.167-.334-.917-.75-1.917-1.584-2.5-.333-.25-.5-.75-.416-1.167.166-.416.583-.75 1.333-.666.833.083 2.083 1 2.833 2 .667.833 1.167 1.333 2.167 1.333h.25c.75 0 2.583 0 2.917-.333.25-.334.416-.584.666-.834-5-1-7.833-3.916-7.833-8.333 0-1.5.417-3 1.333-4.333-.333-1.25-1.083-4.5.5-5.917l.25-.25h.334c2.166 0 3.75.917 4.75 1.667 2.916-1.084 6.25-1.084 9.166 0 .917-.75 2.5-1.667 4.75-1.667h.334l.25.25c1.583 1.5.833 4.667.5 5.917.833 1.333 1.333 2.833 1.333 4.333 0 4.417-2.833 7.333-7.75 8.333 1.25 1.334 1.917 3.334 1.917 4.917v4.083c0 .834.583 1.5 1.416 1.667 7.334-3 12.667-10.25 12.667-18.75 0-11-9-20-20-20z" fill="#132D5B"/></svg>